<mxfile host="app.diagrams.net" modified="2024-05-14T13:20:55.268Z" agent="Mozilla/5.0 (X11; Linux x86_64; rv:125.0) Gecko/20100101 Firefox/125.0" etag="rr3xq1ikNFczcGZDQTZ4" version="24.4.0" type="github">
  <diagram name="PÃ¡gina-1" id="mkqZ174D0ROey95kUa9w">
    <mxGraphModel dx="989" dy="539" grid="1" gridSize="10" guides="1" tooltips="1" connect="1" arrows="1" fold="1" page="1" pageScale="1" pageWidth="1200" pageHeight="1600" math="0" shadow="0">
      <root>
        <mxCell id="0" />
        <mxCell id="1" parent="0" />
        <mxCell id="RJ1rTUiSph7neFS-0lsj-8" value="USUARIO" style="whiteSpace=wrap;html=1;align=center;" parent="1" vertex="1">
          <mxGeometry x="300" y="500" width="100" height="40" as="geometry" />
        </mxCell>
        <mxCell id="RJ1rTUiSph7neFS-0lsj-14" value="" style="endArrow=none;html=1;rounded=0;exitX=1;exitY=0.5;exitDx=0;exitDy=0;entryX=0;entryY=0.5;entryDx=0;entryDy=0;" parent="1" source="RJ1rTUiSph7neFS-0lsj-8" target="RJ1rTUiSph7neFS-0lsj-43" edge="1">
          <mxGeometry width="50" height="50" relative="1" as="geometry">
            <mxPoint x="400" y="605" as="sourcePoint" />
            <mxPoint x="480" y="530" as="targetPoint" />
          </mxGeometry>
        </mxCell>
        <mxCell id="RJ1rTUiSph7neFS-0lsj-20" value="Alquila" style="shape=rhombus;perimeter=rhombusPerimeter;whiteSpace=wrap;html=1;align=center;" parent="1" vertex="1">
          <mxGeometry x="480" y="559.76" width="120" height="60" as="geometry" />
        </mxCell>
        <mxCell id="RJ1rTUiSph7neFS-0lsj-21" value="Valora" style="shape=rhombus;perimeter=rhombusPerimeter;whiteSpace=wrap;html=1;align=center;" parent="1" vertex="1">
          <mxGeometry x="480" y="410" width="120" height="60" as="geometry" />
        </mxCell>
        <mxCell id="RJ1rTUiSph7neFS-0lsj-22" value="CONTENIDO" style="whiteSpace=wrap;html=1;align=center;" parent="1" vertex="1">
          <mxGeometry x="740" y="500" width="100" height="40" as="geometry" />
        </mxCell>
        <mxCell id="RJ1rTUiSph7neFS-0lsj-23" value="" style="triangle;whiteSpace=wrap;html=1;rotation=90;" parent="1" vertex="1">
          <mxGeometry x="780" y="555" width="20" height="30" as="geometry" />
        </mxCell>
        <mxCell id="RJ1rTUiSph7neFS-0lsj-24" value="" style="ellipse;whiteSpace=wrap;html=1;aspect=fixed;" parent="1" vertex="1">
          <mxGeometry x="785.12" y="550" width="9.76" height="9.76" as="geometry" />
        </mxCell>
        <mxCell id="RJ1rTUiSph7neFS-0lsj-25" value="" style="endArrow=none;html=1;rounded=0;" parent="1" edge="1">
          <mxGeometry width="50" height="50" relative="1" as="geometry">
            <mxPoint x="800" y="585" as="sourcePoint" />
            <mxPoint x="800" y="575" as="targetPoint" />
          </mxGeometry>
        </mxCell>
        <mxCell id="RJ1rTUiSph7neFS-0lsj-26" value="" style="endArrow=none;html=1;rounded=0;" parent="1" edge="1">
          <mxGeometry width="50" height="50" relative="1" as="geometry">
            <mxPoint x="780" y="584.76" as="sourcePoint" />
            <mxPoint x="800" y="584.76" as="targetPoint" />
            <Array as="points">
              <mxPoint x="790" y="585" />
              <mxPoint x="800" y="585" />
            </Array>
          </mxGeometry>
        </mxCell>
        <mxCell id="RJ1rTUiSph7neFS-0lsj-27" value="" style="endArrow=none;html=1;rounded=0;" parent="1" edge="1">
          <mxGeometry width="50" height="50" relative="1" as="geometry">
            <mxPoint x="780" y="575" as="sourcePoint" />
            <mxPoint x="780" y="585" as="targetPoint" />
            <Array as="points">
              <mxPoint x="780" y="585" />
            </Array>
          </mxGeometry>
        </mxCell>
        <mxCell id="RJ1rTUiSph7neFS-0lsj-29" value="" style="endArrow=none;html=1;rounded=0;exitX=0.5;exitY=1;exitDx=0;exitDy=0;" parent="1" source="RJ1rTUiSph7neFS-0lsj-22" edge="1">
          <mxGeometry relative="1" as="geometry">
            <mxPoint x="789.66" y="540" as="sourcePoint" />
            <mxPoint x="790" y="550" as="targetPoint" />
          </mxGeometry>
        </mxCell>
        <mxCell id="RJ1rTUiSph7neFS-0lsj-30" value="" style="endArrow=none;html=1;rounded=0;exitX=1;exitY=0.5;exitDx=0;exitDy=0;" parent="1" source="RJ1rTUiSph7neFS-0lsj-23" edge="1">
          <mxGeometry relative="1" as="geometry">
            <mxPoint x="810" y="630" as="sourcePoint" />
            <mxPoint x="790" y="640" as="targetPoint" />
          </mxGeometry>
        </mxCell>
        <mxCell id="RJ1rTUiSph7neFS-0lsj-33" value="" style="endArrow=none;html=1;rounded=0;" parent="1" edge="1">
          <mxGeometry relative="1" as="geometry">
            <mxPoint x="789.66" y="640" as="sourcePoint" />
            <mxPoint x="790" y="680" as="targetPoint" />
          </mxGeometry>
        </mxCell>
        <mxCell id="RJ1rTUiSph7neFS-0lsj-34" value="" style="endArrow=none;html=1;rounded=0;" parent="1" edge="1">
          <mxGeometry relative="1" as="geometry">
            <mxPoint x="910" y="640" as="sourcePoint" />
            <mxPoint x="910.34" y="680" as="targetPoint" />
          </mxGeometry>
        </mxCell>
        <mxCell id="RJ1rTUiSph7neFS-0lsj-35" value="SERIE" style="whiteSpace=wrap;html=1;align=center;" parent="1" vertex="1">
          <mxGeometry x="620" y="840" width="100" height="40" as="geometry" />
        </mxCell>
        <mxCell id="RJ1rTUiSph7neFS-0lsj-36" value="PELICULA" style="whiteSpace=wrap;html=1;align=center;" parent="1" vertex="1">
          <mxGeometry x="740" y="680" width="100" height="40" as="geometry" />
        </mxCell>
        <mxCell id="RJ1rTUiSph7neFS-0lsj-37" value="CORTO" style="whiteSpace=wrap;html=1;align=center;" parent="1" vertex="1">
          <mxGeometry x="860" y="680" width="100" height="40" as="geometry" />
        </mxCell>
        <mxCell id="RJ1rTUiSph7neFS-0lsj-38" value="Estan en" style="shape=rhombus;perimeter=rhombusPerimeter;whiteSpace=wrap;html=1;align=center;" parent="1" vertex="1">
          <mxGeometry x="610" y="750" width="120" height="60" as="geometry" />
        </mxCell>
        <mxCell id="RJ1rTUiSph7neFS-0lsj-41" value="CAPITULO" style="whiteSpace=wrap;html=1;align=center;" parent="1" vertex="1">
          <mxGeometry x="620" y="680" width="100" height="40" as="geometry" />
        </mxCell>
        <mxCell id="RJ1rTUiSph7neFS-0lsj-43" value="Gestiona" style="shape=rhombus;perimeter=rhombusPerimeter;whiteSpace=wrap;html=1;align=center;" parent="1" vertex="1">
          <mxGeometry x="480" y="490" width="120" height="60" as="geometry" />
        </mxCell>
        <mxCell id="RJ1rTUiSph7neFS-0lsj-44" value="" style="endArrow=none;html=1;rounded=0;entryX=0;entryY=0.5;entryDx=0;entryDy=0;exitX=1;exitY=0.75;exitDx=0;exitDy=0;" parent="1" source="RJ1rTUiSph7neFS-0lsj-8" target="RJ1rTUiSph7neFS-0lsj-20" edge="1">
          <mxGeometry relative="1" as="geometry">
            <mxPoint x="620" y="450" as="sourcePoint" />
            <mxPoint x="780" y="450" as="targetPoint" />
            <Array as="points">
              <mxPoint x="420" y="530" />
              <mxPoint x="480" y="530" />
            </Array>
          </mxGeometry>
        </mxCell>
        <mxCell id="RJ1rTUiSph7neFS-0lsj-50" value="" style="endArrow=none;html=1;rounded=0;exitX=1;exitY=0.25;exitDx=0;exitDy=0;entryX=0;entryY=0.5;entryDx=0;entryDy=0;" parent="1" source="RJ1rTUiSph7neFS-0lsj-8" target="RJ1rTUiSph7neFS-0lsj-21" edge="1">
          <mxGeometry relative="1" as="geometry">
            <mxPoint x="450" y="492.5" as="sourcePoint" />
            <mxPoint x="450" y="332.5" as="targetPoint" />
            <Array as="points">
              <mxPoint x="420" y="510" />
              <mxPoint x="420" y="440" />
            </Array>
          </mxGeometry>
        </mxCell>
        <mxCell id="RJ1rTUiSph7neFS-0lsj-66" value="Tiene una" style="shape=rhombus;perimeter=rhombusPerimeter;whiteSpace=wrap;html=1;align=center;" parent="1" vertex="1">
          <mxGeometry x="900" y="460" width="120" height="60" as="geometry" />
        </mxCell>
        <mxCell id="RJ1rTUiSph7neFS-0lsj-67" value="Pertenece a " style="shape=rhombus;perimeter=rhombusPerimeter;whiteSpace=wrap;html=1;align=center;" parent="1" vertex="1">
          <mxGeometry x="860" y="540" width="120" height="60" as="geometry" />
        </mxCell>
        <mxCell id="RJ1rTUiSph7neFS-0lsj-68" value="Tarifa" style="whiteSpace=wrap;html=1;align=center;" parent="1" vertex="1">
          <mxGeometry x="1050" y="450" width="100" height="40" as="geometry" />
        </mxCell>
        <mxCell id="RJ1rTUiSph7neFS-0lsj-69" value="Genero" style="whiteSpace=wrap;html=1;align=center;" parent="1" vertex="1">
          <mxGeometry x="1020" y="550" width="100" height="40" as="geometry" />
        </mxCell>
        <mxCell id="RJ1rTUiSph7neFS-0lsj-72" value="" style="endArrow=none;html=1;rounded=0;exitX=0.75;exitY=1;exitDx=0;exitDy=0;" parent="1" source="RJ1rTUiSph7neFS-0lsj-22" edge="1">
          <mxGeometry relative="1" as="geometry">
            <mxPoint x="700" y="570" as="sourcePoint" />
            <mxPoint x="860" y="570" as="targetPoint" />
            <Array as="points">
              <mxPoint x="815" y="570" />
            </Array>
          </mxGeometry>
        </mxCell>
        <mxCell id="RJ1rTUiSph7neFS-0lsj-74" value="" style="endArrow=none;html=1;rounded=0;exitX=1;exitY=0.25;exitDx=0;exitDy=0;entryX=0;entryY=0.5;entryDx=0;entryDy=0;" parent="1" source="RJ1rTUiSph7neFS-0lsj-22" target="RJ1rTUiSph7neFS-0lsj-66" edge="1">
          <mxGeometry relative="1" as="geometry">
            <mxPoint x="700" y="470" as="sourcePoint" />
            <mxPoint x="860" y="470" as="targetPoint" />
            <Array as="points">
              <mxPoint x="860" y="510" />
              <mxPoint x="860" y="490" />
            </Array>
          </mxGeometry>
        </mxCell>
        <mxCell id="RJ1rTUiSph7neFS-0lsj-75" value="" style="endArrow=none;html=1;rounded=0;entryX=0;entryY=0.5;entryDx=0;entryDy=0;exitX=1;exitY=0.5;exitDx=0;exitDy=0;" parent="1" source="RJ1rTUiSph7neFS-0lsj-66" target="RJ1rTUiSph7neFS-0lsj-68" edge="1">
          <mxGeometry relative="1" as="geometry">
            <mxPoint x="980" y="470" as="sourcePoint" />
            <mxPoint x="1020" y="470" as="targetPoint" />
            <Array as="points">
              <mxPoint x="1020" y="470" />
            </Array>
          </mxGeometry>
        </mxCell>
        <mxCell id="RJ1rTUiSph7neFS-0lsj-76" value="" style="endArrow=none;html=1;rounded=0;" parent="1" edge="1">
          <mxGeometry relative="1" as="geometry">
            <mxPoint x="980" y="570" as="sourcePoint" />
            <mxPoint x="1020" y="570" as="targetPoint" />
          </mxGeometry>
        </mxCell>
        <mxCell id="RJ1rTUiSph7neFS-0lsj-77" value="Tiene" style="shape=rhombus;perimeter=rhombusPerimeter;whiteSpace=wrap;html=1;align=center;" parent="1" vertex="1">
          <mxGeometry x="290" y="380" width="120" height="60" as="geometry" />
        </mxCell>
        <mxCell id="RJ1rTUiSph7neFS-0lsj-78" value="Carro de Compra" style="whiteSpace=wrap;html=1;align=center;" parent="1" vertex="1">
          <mxGeometry x="90" y="80" width="100" height="40" as="geometry" />
        </mxCell>
        <mxCell id="Cc-G76g3C1j7heIn7z3_-1" value="" style="endArrow=none;html=1;rounded=0;entryX=0;entryY=0.75;entryDx=0;entryDy=0;exitX=1;exitY=0.5;exitDx=0;exitDy=0;" parent="1" source="RJ1rTUiSph7neFS-0lsj-20" target="RJ1rTUiSph7neFS-0lsj-22" edge="1">
          <mxGeometry width="50" height="50" relative="1" as="geometry">
            <mxPoint x="670" y="570" as="sourcePoint" />
            <mxPoint x="720" y="520" as="targetPoint" />
            <Array as="points">
              <mxPoint x="650" y="590" />
              <mxPoint x="650" y="530" />
              <mxPoint x="710" y="530" />
            </Array>
          </mxGeometry>
        </mxCell>
        <mxCell id="Cc-G76g3C1j7heIn7z3_-2" value="" style="endArrow=none;html=1;rounded=0;exitX=1;exitY=0.5;exitDx=0;exitDy=0;entryX=0;entryY=0.5;entryDx=0;entryDy=0;" parent="1" source="RJ1rTUiSph7neFS-0lsj-43" target="RJ1rTUiSph7neFS-0lsj-22" edge="1">
          <mxGeometry width="50" height="50" relative="1" as="geometry">
            <mxPoint x="640" y="550" as="sourcePoint" />
            <mxPoint x="690" y="500" as="targetPoint" />
          </mxGeometry>
        </mxCell>
        <mxCell id="Cc-G76g3C1j7heIn7z3_-3" value="" style="endArrow=none;html=1;rounded=0;exitX=1;exitY=0.5;exitDx=0;exitDy=0;entryX=0;entryY=0.25;entryDx=0;entryDy=0;" parent="1" source="RJ1rTUiSph7neFS-0lsj-21" target="RJ1rTUiSph7neFS-0lsj-22" edge="1">
          <mxGeometry width="50" height="50" relative="1" as="geometry">
            <mxPoint x="690" y="470" as="sourcePoint" />
            <mxPoint x="740" y="420" as="targetPoint" />
            <Array as="points">
              <mxPoint x="620" y="440" />
              <mxPoint x="620" y="510" />
              <mxPoint x="710" y="510" />
            </Array>
          </mxGeometry>
        </mxCell>
        <mxCell id="Cc-G76g3C1j7heIn7z3_-8" value="" style="endArrow=none;html=1;rounded=0;entryX=0.5;entryY=1;entryDx=0;entryDy=0;exitX=0.5;exitY=0;exitDx=0;exitDy=0;" parent="1" source="RJ1rTUiSph7neFS-0lsj-8" target="RJ1rTUiSph7neFS-0lsj-77" edge="1">
          <mxGeometry width="50" height="50" relative="1" as="geometry">
            <mxPoint x="200" y="520" as="sourcePoint" />
            <mxPoint x="250" y="470" as="targetPoint" />
          </mxGeometry>
        </mxCell>
        <mxCell id="Cc-G76g3C1j7heIn7z3_-9" value="Administra a" style="shape=rhombus;perimeter=rhombusPerimeter;whiteSpace=wrap;html=1;align=center;" parent="1" vertex="1">
          <mxGeometry x="360" y="600" width="120" height="60" as="geometry" />
        </mxCell>
        <mxCell id="Cc-G76g3C1j7heIn7z3_-12" value="Puntos" style="ellipse;whiteSpace=wrap;html=1;align=center;" parent="1" vertex="1">
          <mxGeometry x="490" y="340" width="100" height="40" as="geometry" />
        </mxCell>
        <mxCell id="Cc-G76g3C1j7heIn7z3_-13" value="" style="endArrow=none;html=1;rounded=0;exitX=0.5;exitY=0;exitDx=0;exitDy=0;entryX=0.5;entryY=1;entryDx=0;entryDy=0;" parent="1" source="RJ1rTUiSph7neFS-0lsj-21" target="Cc-G76g3C1j7heIn7z3_-12" edge="1">
          <mxGeometry relative="1" as="geometry">
            <mxPoint x="640" y="370" as="sourcePoint" />
            <mxPoint x="800" y="370" as="targetPoint" />
          </mxGeometry>
        </mxCell>
        <mxCell id="Cc-G76g3C1j7heIn7z3_-14" value="Se almacenan en" style="shape=rhombus;perimeter=rhombusPerimeter;whiteSpace=wrap;html=1;align=center;" parent="1" vertex="1">
          <mxGeometry x="290" y="70" width="120" height="60" as="geometry" />
        </mxCell>
        <mxCell id="Cc-G76g3C1j7heIn7z3_-15" value="Lineas de Factura" style="whiteSpace=wrap;html=1;align=center;" parent="1" vertex="1">
          <mxGeometry x="300" y="140" width="100" height="40" as="geometry" />
        </mxCell>
        <mxCell id="Cc-G76g3C1j7heIn7z3_-16" value="Contiene" style="shape=rhombus;perimeter=rhombusPerimeter;whiteSpace=wrap;html=1;align=center;" parent="1" vertex="1">
          <mxGeometry x="290" y="210" width="120" height="60" as="geometry" />
        </mxCell>
        <mxCell id="Cc-G76g3C1j7heIn7z3_-17" value="Factura" style="whiteSpace=wrap;html=1;align=center;" parent="1" vertex="1">
          <mxGeometry x="300" y="300" width="100" height="40" as="geometry" />
        </mxCell>
        <mxCell id="Cc-G76g3C1j7heIn7z3_-22" value="" style="endArrow=none;html=1;rounded=0;entryX=0.5;entryY=0;entryDx=0;entryDy=0;exitX=0.5;exitY=1;exitDx=0;exitDy=0;" parent="1" source="Cc-G76g3C1j7heIn7z3_-17" target="RJ1rTUiSph7neFS-0lsj-77" edge="1">
          <mxGeometry relative="1" as="geometry">
            <mxPoint x="200" y="180" as="sourcePoint" />
            <mxPoint x="360" y="180" as="targetPoint" />
          </mxGeometry>
        </mxCell>
        <mxCell id="Cc-G76g3C1j7heIn7z3_-23" value="" style="endArrow=none;html=1;rounded=0;entryX=0.5;entryY=0;entryDx=0;entryDy=0;exitX=0.5;exitY=1;exitDx=0;exitDy=0;" parent="1" source="Cc-G76g3C1j7heIn7z3_-16" target="Cc-G76g3C1j7heIn7z3_-17" edge="1">
          <mxGeometry relative="1" as="geometry">
            <mxPoint x="270" y="200" as="sourcePoint" />
            <mxPoint x="300" y="230" as="targetPoint" />
          </mxGeometry>
        </mxCell>
        <mxCell id="Cc-G76g3C1j7heIn7z3_-24" value="" style="endArrow=none;html=1;rounded=0;exitX=0.5;exitY=1;exitDx=0;exitDy=0;entryX=0.5;entryY=0;entryDx=0;entryDy=0;" parent="1" source="Cc-G76g3C1j7heIn7z3_-15" target="Cc-G76g3C1j7heIn7z3_-16" edge="1">
          <mxGeometry relative="1" as="geometry">
            <mxPoint x="200" y="220" as="sourcePoint" />
            <mxPoint x="360" y="220" as="targetPoint" />
          </mxGeometry>
        </mxCell>
        <mxCell id="Cc-G76g3C1j7heIn7z3_-25" value="" style="endArrow=none;html=1;rounded=0;exitX=0.5;exitY=1;exitDx=0;exitDy=0;entryX=0.5;entryY=0;entryDx=0;entryDy=0;" parent="1" source="Cc-G76g3C1j7heIn7z3_-14" target="Cc-G76g3C1j7heIn7z3_-15" edge="1">
          <mxGeometry relative="1" as="geometry">
            <mxPoint x="230" y="210" as="sourcePoint" />
            <mxPoint x="390" y="210" as="targetPoint" />
          </mxGeometry>
        </mxCell>
        <mxCell id="Cc-G76g3C1j7heIn7z3_-26" value="" style="endArrow=none;html=1;rounded=0;exitX=1;exitY=0.5;exitDx=0;exitDy=0;entryX=0;entryY=0.5;entryDx=0;entryDy=0;" parent="1" source="RJ1rTUiSph7neFS-0lsj-78" target="Cc-G76g3C1j7heIn7z3_-14" edge="1">
          <mxGeometry relative="1" as="geometry">
            <mxPoint x="280" y="130" as="sourcePoint" />
            <mxPoint x="440" y="130" as="targetPoint" />
          </mxGeometry>
        </mxCell>
        <mxCell id="Cc-G76g3C1j7heIn7z3_-27" value="Articulos a Facturar" style="shape=rhombus;perimeter=rhombusPerimeter;whiteSpace=wrap;html=1;align=center;" parent="1" vertex="1">
          <mxGeometry x="730" y="130" width="120" height="60" as="geometry" />
        </mxCell>
        <mxCell id="Cc-G76g3C1j7heIn7z3_-28" value="" style="endArrow=none;html=1;rounded=0;exitX=1;exitY=0.5;exitDx=0;exitDy=0;entryX=0;entryY=0.5;entryDx=0;entryDy=0;" parent="1" edge="1">
          <mxGeometry relative="1" as="geometry">
            <mxPoint x="400" y="159.5" as="sourcePoint" />
            <mxPoint x="730" y="159.5" as="targetPoint" />
          </mxGeometry>
        </mxCell>
        <mxCell id="Cc-G76g3C1j7heIn7z3_-29" value="" style="endArrow=none;html=1;rounded=0;exitX=0.5;exitY=1;exitDx=0;exitDy=0;entryX=0.5;entryY=0;entryDx=0;entryDy=0;" parent="1" source="Cc-G76g3C1j7heIn7z3_-27" target="RJ1rTUiSph7neFS-0lsj-22" edge="1">
          <mxGeometry relative="1" as="geometry">
            <mxPoint x="920" y="350" as="sourcePoint" />
            <mxPoint x="1080" y="350" as="targetPoint" />
          </mxGeometry>
        </mxCell>
        <mxCell id="Cc-G76g3C1j7heIn7z3_-30" value="" style="endArrow=none;html=1;rounded=0;entryX=0.25;entryY=0;entryDx=0;entryDy=0;exitX=0.5;exitY=1;exitDx=0;exitDy=0;" parent="1" source="Cc-G76g3C1j7heIn7z3_-31" target="RJ1rTUiSph7neFS-0lsj-8" edge="1">
          <mxGeometry relative="1" as="geometry">
            <mxPoint x="160" y="400" as="sourcePoint" />
            <mxPoint x="310" y="460" as="targetPoint" />
            <Array as="points">
              <mxPoint x="230" y="340" />
              <mxPoint x="280" y="430" />
              <mxPoint x="325" y="460" />
            </Array>
          </mxGeometry>
        </mxCell>
        <mxCell id="Cc-G76g3C1j7heIn7z3_-31" value="Tiene" style="shape=rhombus;perimeter=rhombusPerimeter;whiteSpace=wrap;html=1;align=center;" parent="1" vertex="1">
          <mxGeometry x="20" y="260" width="120" height="60" as="geometry" />
        </mxCell>
        <mxCell id="Cc-G76g3C1j7heIn7z3_-32" value="" style="endArrow=none;html=1;rounded=0;exitX=0.5;exitY=0;exitDx=0;exitDy=0;entryX=0.5;entryY=1;entryDx=0;entryDy=0;" parent="1" source="Cc-G76g3C1j7heIn7z3_-31" target="RJ1rTUiSph7neFS-0lsj-78" edge="1">
          <mxGeometry relative="1" as="geometry">
            <mxPoint x="100" y="160" as="sourcePoint" />
            <mxPoint x="260" y="160" as="targetPoint" />
            <Array as="points">
              <mxPoint x="80" y="170" />
              <mxPoint x="140" y="170" />
            </Array>
          </mxGeometry>
        </mxCell>
        <mxCell id="Cc-G76g3C1j7heIn7z3_-33" value="Domicilio" style="ellipse;whiteSpace=wrap;html=1;align=center;" parent="1" vertex="1">
          <mxGeometry x="20" y="510" width="100" height="40" as="geometry" />
        </mxCell>
        <mxCell id="Cc-G76g3C1j7heIn7z3_-34" value="Codigo Postal" style="ellipse;whiteSpace=wrap;html=1;align=center;" parent="1" vertex="1">
          <mxGeometry x="30" y="550" width="100" height="40" as="geometry" />
        </mxCell>
        <mxCell id="Cc-G76g3C1j7heIn7z3_-35" value="ContraseÃ±a" style="ellipse;whiteSpace=wrap;html=1;align=center;" parent="1" vertex="1">
          <mxGeometry x="130" y="370" width="100" height="40" as="geometry" />
        </mxCell>
        <mxCell id="Cc-G76g3C1j7heIn7z3_-36" value="Nombre" style="ellipse;whiteSpace=wrap;html=1;align=center;" parent="1" vertex="1">
          <mxGeometry x="40" y="420" width="100" height="40" as="geometry" />
        </mxCell>
        <mxCell id="Cc-G76g3C1j7heIn7z3_-37" value="Email" style="ellipse;whiteSpace=wrap;html=1;align=center;" parent="1" vertex="1">
          <mxGeometry x="40" y="600" width="100" height="40" as="geometry" />
        </mxCell>
        <mxCell id="Cc-G76g3C1j7heIn7z3_-38" value="F.Nacimiento" style="ellipse;whiteSpace=wrap;html=1;align=center;" parent="1" vertex="1">
          <mxGeometry x="50" y="650" width="100" height="40" as="geometry" />
        </mxCell>
        <mxCell id="Cc-G76g3C1j7heIn7z3_-39" value="NÂºTarjeta" style="ellipse;whiteSpace=wrap;html=1;align=center;" parent="1" vertex="1">
          <mxGeometry x="140" y="670" width="100" height="40" as="geometry" />
        </mxCell>
        <mxCell id="Cc-G76g3C1j7heIn7z3_-40" value="Apellidos" style="ellipse;whiteSpace=wrap;html=1;align=center;" parent="1" vertex="1">
          <mxGeometry x="230" y="700" width="100" height="40" as="geometry" />
        </mxCell>
        <mxCell id="Cc-G76g3C1j7heIn7z3_-42" value="" style="endArrow=none;html=1;rounded=0;exitX=0;exitY=0;exitDx=0;exitDy=0;entryX=0.25;entryY=1;entryDx=0;entryDy=0;" parent="1" source="Cc-G76g3C1j7heIn7z3_-9" target="RJ1rTUiSph7neFS-0lsj-8" edge="1">
          <mxGeometry relative="1" as="geometry">
            <mxPoint x="330" y="760" as="sourcePoint" />
            <mxPoint x="490" y="760" as="targetPoint" />
            <Array as="points">
              <mxPoint x="390" y="560" />
            </Array>
          </mxGeometry>
        </mxCell>
        <mxCell id="Cc-G76g3C1j7heIn7z3_-43" value="" style="endArrow=none;html=1;rounded=0;exitX=1;exitY=0;exitDx=0;exitDy=0;" parent="1" source="Cc-G76g3C1j7heIn7z3_-9" edge="1">
          <mxGeometry relative="1" as="geometry">
            <mxPoint x="390" y="760" as="sourcePoint" />
            <mxPoint x="375" y="540" as="targetPoint" />
            <Array as="points">
              <mxPoint x="450" y="570" />
              <mxPoint x="450" y="550" />
            </Array>
          </mxGeometry>
        </mxCell>
        <mxCell id="Cc-G76g3C1j7heIn7z3_-44" value="" style="endArrow=none;html=1;rounded=0;exitX=0.62;exitY=1.05;exitDx=0;exitDy=0;exitPerimeter=0;entryX=0;entryY=0;entryDx=0;entryDy=0;" parent="1" source="Cc-G76g3C1j7heIn7z3_-35" target="RJ1rTUiSph7neFS-0lsj-8" edge="1">
          <mxGeometry relative="1" as="geometry">
            <mxPoint x="160" y="450" as="sourcePoint" />
            <mxPoint x="320" y="450" as="targetPoint" />
          </mxGeometry>
        </mxCell>
        <mxCell id="Cc-G76g3C1j7heIn7z3_-45" value="" style="endArrow=none;html=1;rounded=0;entryX=0;entryY=0.5;entryDx=0;entryDy=0;exitX=1;exitY=0.5;exitDx=0;exitDy=0;" parent="1" target="RJ1rTUiSph7neFS-0lsj-8" edge="1">
          <mxGeometry relative="1" as="geometry">
            <mxPoint x="240" y="500" as="sourcePoint" />
            <mxPoint x="300" y="589" as="targetPoint" />
          </mxGeometry>
        </mxCell>
        <mxCell id="Cc-G76g3C1j7heIn7z3_-46" value="" style="endArrow=none;html=1;rounded=0;entryX=0;entryY=1;entryDx=0;entryDy=0;exitX=0.75;exitY=-0.025;exitDx=0;exitDy=0;exitPerimeter=0;" parent="1" source="Cc-G76g3C1j7heIn7z3_-39" target="RJ1rTUiSph7neFS-0lsj-8" edge="1">
          <mxGeometry relative="1" as="geometry">
            <mxPoint x="90" y="810" as="sourcePoint" />
            <mxPoint x="250" y="810" as="targetPoint" />
          </mxGeometry>
        </mxCell>
        <mxCell id="Cc-G76g3C1j7heIn7z3_-47" value="" style="endArrow=none;html=1;rounded=0;entryX=1;entryY=0;entryDx=0;entryDy=0;exitX=0.12;exitY=1.075;exitDx=0;exitDy=0;exitPerimeter=0;" parent="1" source="RJ1rTUiSph7neFS-0lsj-8" target="Cc-G76g3C1j7heIn7z3_-40" edge="1">
          <mxGeometry relative="1" as="geometry">
            <mxPoint x="120" y="820" as="sourcePoint" />
            <mxPoint x="280" y="820" as="targetPoint" />
          </mxGeometry>
        </mxCell>
        <mxCell id="Cc-G76g3C1j7heIn7z3_-48" value="" style="endArrow=none;html=1;rounded=0;entryX=1;entryY=0;entryDx=0;entryDy=0;exitX=0;exitY=0.75;exitDx=0;exitDy=0;" parent="1" source="RJ1rTUiSph7neFS-0lsj-8" target="Cc-G76g3C1j7heIn7z3_-38" edge="1">
          <mxGeometry relative="1" as="geometry">
            <mxPoint x="90" y="740" as="sourcePoint" />
            <mxPoint x="250" y="740" as="targetPoint" />
          </mxGeometry>
        </mxCell>
        <mxCell id="Cc-G76g3C1j7heIn7z3_-49" value="" style="endArrow=none;html=1;rounded=0;exitX=1;exitY=0.5;exitDx=0;exitDy=0;entryX=0;entryY=1;entryDx=0;entryDy=0;" parent="1" source="Cc-G76g3C1j7heIn7z3_-37" target="RJ1rTUiSph7neFS-0lsj-8" edge="1">
          <mxGeometry relative="1" as="geometry">
            <mxPoint x="60" y="740" as="sourcePoint" />
            <mxPoint x="220" y="740" as="targetPoint" />
          </mxGeometry>
        </mxCell>
        <mxCell id="Cc-G76g3C1j7heIn7z3_-50" value="" style="endArrow=none;html=1;rounded=0;exitX=1;exitY=0.5;exitDx=0;exitDy=0;entryX=0;entryY=0.5;entryDx=0;entryDy=0;" parent="1" source="Cc-G76g3C1j7heIn7z3_-34" target="RJ1rTUiSph7neFS-0lsj-8" edge="1">
          <mxGeometry relative="1" as="geometry">
            <mxPoint x="180" y="750" as="sourcePoint" />
            <mxPoint x="340" y="750" as="targetPoint" />
          </mxGeometry>
        </mxCell>
        <mxCell id="Cc-G76g3C1j7heIn7z3_-51" value="" style="endArrow=none;html=1;rounded=0;exitX=1;exitY=0.5;exitDx=0;exitDy=0;entryX=0;entryY=0.75;entryDx=0;entryDy=0;" parent="1" source="Cc-G76g3C1j7heIn7z3_-33" target="RJ1rTUiSph7neFS-0lsj-8" edge="1">
          <mxGeometry relative="1" as="geometry">
            <mxPoint x="80" y="800" as="sourcePoint" />
            <mxPoint x="240" y="800" as="targetPoint" />
          </mxGeometry>
        </mxCell>
        <mxCell id="Cc-G76g3C1j7heIn7z3_-52" value="" style="endArrow=none;html=1;rounded=0;exitX=1;exitY=0.5;exitDx=0;exitDy=0;entryX=0;entryY=0.25;entryDx=0;entryDy=0;" parent="1" source="Cc-G76g3C1j7heIn7z3_-36" target="RJ1rTUiSph7neFS-0lsj-8" edge="1">
          <mxGeometry relative="1" as="geometry">
            <mxPoint x="370" y="740" as="sourcePoint" />
            <mxPoint x="530" y="740" as="targetPoint" />
          </mxGeometry>
        </mxCell>
        <mxCell id="Cc-G76g3C1j7heIn7z3_-53" value="Identificador" style="ellipse;whiteSpace=wrap;html=1;align=center;fontStyle=4;" parent="1" vertex="1">
          <mxGeometry x="140" y="480" width="100" height="40" as="geometry" />
        </mxCell>
        <mxCell id="Cc-G76g3C1j7heIn7z3_-54" value="Director" style="ellipse;whiteSpace=wrap;html=1;align=center;" parent="1" vertex="1">
          <mxGeometry x="860" y="430" width="100" height="40" as="geometry" />
        </mxCell>
        <mxCell id="Cc-G76g3C1j7heIn7z3_-56" value="Identificador" style="ellipse;whiteSpace=wrap;html=1;align=center;fontStyle=4;" parent="1" vertex="1">
          <mxGeometry x="620" y="450" width="100" height="40" as="geometry" />
        </mxCell>
        <mxCell id="Cc-G76g3C1j7heIn7z3_-58" value="Precio" style="ellipse;whiteSpace=wrap;html=1;align=center;" parent="1" vertex="1">
          <mxGeometry x="1090" y="390" width="100" height="40" as="geometry" />
        </mxCell>
        <mxCell id="Cc-G76g3C1j7heIn7z3_-59" value="Codigo" style="ellipse;whiteSpace=wrap;html=1;align=center;fontStyle=4;" parent="1" vertex="1">
          <mxGeometry x="980" y="390" width="100" height="40" as="geometry" />
        </mxCell>
        <mxCell id="Cc-G76g3C1j7heIn7z3_-61" value="Tipo" style="ellipse;whiteSpace=wrap;html=1;align=center;" parent="1" vertex="1">
          <mxGeometry x="1090" y="620" width="100" height="40" as="geometry" />
        </mxCell>
        <mxCell id="Cc-G76g3C1j7heIn7z3_-62" value="" style="endArrow=none;html=1;rounded=0;exitX=0.5;exitY=1;exitDx=0;exitDy=0;entryX=0.25;entryY=0;entryDx=0;entryDy=0;" parent="1" source="Cc-G76g3C1j7heIn7z3_-59" target="RJ1rTUiSph7neFS-0lsj-68" edge="1">
          <mxGeometry relative="1" as="geometry">
            <mxPoint x="990" y="310" as="sourcePoint" />
            <mxPoint x="1150" y="310" as="targetPoint" />
          </mxGeometry>
        </mxCell>
        <mxCell id="Cc-G76g3C1j7heIn7z3_-63" value="" style="endArrow=none;html=1;rounded=0;exitX=0.5;exitY=1;exitDx=0;exitDy=0;entryX=0.75;entryY=0;entryDx=0;entryDy=0;" parent="1" source="Cc-G76g3C1j7heIn7z3_-58" target="RJ1rTUiSph7neFS-0lsj-68" edge="1">
          <mxGeometry relative="1" as="geometry">
            <mxPoint x="1020" y="310" as="sourcePoint" />
            <mxPoint x="1180" y="310" as="targetPoint" />
          </mxGeometry>
        </mxCell>
        <mxCell id="Cc-G76g3C1j7heIn7z3_-64" value="ID" style="ellipse;whiteSpace=wrap;html=1;align=center;fontStyle=4;" parent="1" vertex="1">
          <mxGeometry x="960" y="620" width="100" height="40" as="geometry" />
        </mxCell>
        <mxCell id="Cc-G76g3C1j7heIn7z3_-65" value="" style="endArrow=none;html=1;rounded=0;exitX=0.5;exitY=0;exitDx=0;exitDy=0;entryX=0.25;entryY=1;entryDx=0;entryDy=0;" parent="1" source="Cc-G76g3C1j7heIn7z3_-64" target="RJ1rTUiSph7neFS-0lsj-69" edge="1">
          <mxGeometry relative="1" as="geometry">
            <mxPoint x="1040" y="710" as="sourcePoint" />
            <mxPoint x="1200" y="710" as="targetPoint" />
          </mxGeometry>
        </mxCell>
        <mxCell id="Cc-G76g3C1j7heIn7z3_-66" value="" style="endArrow=none;html=1;rounded=0;exitX=0.75;exitY=1;exitDx=0;exitDy=0;entryX=0.5;entryY=0;entryDx=0;entryDy=0;" parent="1" source="RJ1rTUiSph7neFS-0lsj-69" target="Cc-G76g3C1j7heIn7z3_-61" edge="1">
          <mxGeometry relative="1" as="geometry">
            <mxPoint x="990" y="700" as="sourcePoint" />
            <mxPoint x="1150" y="700" as="targetPoint" />
          </mxGeometry>
        </mxCell>
        <mxCell id="Cc-G76g3C1j7heIn7z3_-67" value="Descripcion" style="ellipse;whiteSpace=wrap;html=1;align=center;" parent="1" vertex="1">
          <mxGeometry x="610" y="400" width="100" height="40" as="geometry" />
        </mxCell>
        <mxCell id="Cc-G76g3C1j7heIn7z3_-68" value="Duracion" style="ellipse;whiteSpace=wrap;html=1;align=center;" parent="1" vertex="1">
          <mxGeometry x="880" y="380" width="100" height="40" as="geometry" />
        </mxCell>
        <mxCell id="Cc-G76g3C1j7heIn7z3_-69" value="Actores" style="ellipse;whiteSpace=wrap;html=1;align=center;" parent="1" vertex="1">
          <mxGeometry x="610" y="330" width="100" height="40" as="geometry" />
        </mxCell>
        <mxCell id="Cc-G76g3C1j7heIn7z3_-70" value="" style="endArrow=none;html=1;rounded=0;exitX=1;exitY=1;exitDx=0;exitDy=0;entryX=0.43;entryY=-0.075;entryDx=0;entryDy=0;entryPerimeter=0;" parent="1" source="Cc-G76g3C1j7heIn7z3_-69" target="RJ1rTUiSph7neFS-0lsj-22" edge="1">
          <mxGeometry relative="1" as="geometry">
            <mxPoint x="870" y="300" as="sourcePoint" />
            <mxPoint x="1030" y="300" as="targetPoint" />
          </mxGeometry>
        </mxCell>
        <mxCell id="Cc-G76g3C1j7heIn7z3_-71" value="" style="endArrow=none;html=1;rounded=0;exitX=1;exitY=1;exitDx=0;exitDy=0;entryX=0.25;entryY=0;entryDx=0;entryDy=0;" parent="1" source="Cc-G76g3C1j7heIn7z3_-67" target="RJ1rTUiSph7neFS-0lsj-22" edge="1">
          <mxGeometry relative="1" as="geometry">
            <mxPoint x="860" y="310" as="sourcePoint" />
            <mxPoint x="1020" y="310" as="targetPoint" />
          </mxGeometry>
        </mxCell>
        <mxCell id="Cc-G76g3C1j7heIn7z3_-72" value="" style="endArrow=none;html=1;rounded=0;exitX=1;exitY=0.5;exitDx=0;exitDy=0;entryX=0;entryY=0;entryDx=0;entryDy=0;" parent="1" source="Cc-G76g3C1j7heIn7z3_-56" target="RJ1rTUiSph7neFS-0lsj-22" edge="1">
          <mxGeometry relative="1" as="geometry">
            <mxPoint x="370" y="760" as="sourcePoint" />
            <mxPoint x="530" y="760" as="targetPoint" />
          </mxGeometry>
        </mxCell>
        <mxCell id="Cc-G76g3C1j7heIn7z3_-73" value="" style="endArrow=none;html=1;rounded=0;exitX=0;exitY=1;exitDx=0;exitDy=0;entryX=0.75;entryY=0;entryDx=0;entryDy=0;" parent="1" source="Cc-G76g3C1j7heIn7z3_-68" target="RJ1rTUiSph7neFS-0lsj-22" edge="1">
          <mxGeometry relative="1" as="geometry">
            <mxPoint x="950" y="260" as="sourcePoint" />
            <mxPoint x="1110" y="260" as="targetPoint" />
          </mxGeometry>
        </mxCell>
        <mxCell id="Cc-G76g3C1j7heIn7z3_-74" value="" style="endArrow=none;html=1;rounded=0;exitX=0;exitY=1;exitDx=0;exitDy=0;entryX=1;entryY=0;entryDx=0;entryDy=0;" parent="1" source="Cc-G76g3C1j7heIn7z3_-54" target="RJ1rTUiSph7neFS-0lsj-22" edge="1">
          <mxGeometry relative="1" as="geometry">
            <mxPoint x="560" y="650" as="sourcePoint" />
            <mxPoint x="720" y="650" as="targetPoint" />
          </mxGeometry>
        </mxCell>
        <mxCell id="Cc-G76g3C1j7heIn7z3_-75" value="Fecha de Estreno" style="ellipse;whiteSpace=wrap;html=1;align=center;" parent="1" vertex="1">
          <mxGeometry x="800" y="330" width="100" height="40" as="geometry" />
        </mxCell>
        <mxCell id="Cc-G76g3C1j7heIn7z3_-76" value="" style="endArrow=none;html=1;rounded=0;exitX=0.63;exitY=0;exitDx=0;exitDy=0;exitPerimeter=0;entryX=0.31;entryY=0.975;entryDx=0;entryDy=0;entryPerimeter=0;" parent="1" source="RJ1rTUiSph7neFS-0lsj-22" target="Cc-G76g3C1j7heIn7z3_-75" edge="1">
          <mxGeometry relative="1" as="geometry">
            <mxPoint x="940" y="300" as="sourcePoint" />
            <mxPoint x="1100" y="300" as="targetPoint" />
          </mxGeometry>
        </mxCell>
        <mxCell id="Cc-G76g3C1j7heIn7z3_-77" value="Disponible hasta" style="ellipse;whiteSpace=wrap;html=1;align=center;" parent="1" vertex="1">
          <mxGeometry x="770" y="740" width="100" height="40" as="geometry" />
        </mxCell>
        <mxCell id="Cc-G76g3C1j7heIn7z3_-78" value="" style="endArrow=none;html=1;rounded=0;exitX=0.5;exitY=0;exitDx=0;exitDy=0;entryX=0.5;entryY=1;entryDx=0;entryDy=0;" parent="1" source="Cc-G76g3C1j7heIn7z3_-77" target="RJ1rTUiSph7neFS-0lsj-36" edge="1">
          <mxGeometry relative="1" as="geometry">
            <mxPoint x="870" y="910" as="sourcePoint" />
            <mxPoint x="1030" y="910" as="targetPoint" />
          </mxGeometry>
        </mxCell>
        <mxCell id="Cc-G76g3C1j7heIn7z3_-79" value="Titulo" style="ellipse;whiteSpace=wrap;html=1;align=center;" parent="1" vertex="1">
          <mxGeometry x="660" y="569.76" width="100" height="40" as="geometry" />
        </mxCell>
        <mxCell id="Cc-G76g3C1j7heIn7z3_-81" value="" style="endArrow=none;html=1;rounded=0;exitX=0.5;exitY=0;exitDx=0;exitDy=0;entryX=0.25;entryY=1;entryDx=0;entryDy=0;" parent="1" source="Cc-G76g3C1j7heIn7z3_-79" target="RJ1rTUiSph7neFS-0lsj-22" edge="1">
          <mxGeometry relative="1" as="geometry">
            <mxPoint x="440" y="760" as="sourcePoint" />
            <mxPoint x="600" y="760" as="targetPoint" />
          </mxGeometry>
        </mxCell>
        <mxCell id="Cc-G76g3C1j7heIn7z3_-82" value="Titulo" style="ellipse;whiteSpace=wrap;html=1;align=center;" parent="1" vertex="1">
          <mxGeometry x="625" y="910" width="90" height="40" as="geometry" />
        </mxCell>
        <mxCell id="Cc-G76g3C1j7heIn7z3_-97" value="Disponibilidad" style="ellipse;whiteSpace=wrap;html=1;align=center;" parent="1" vertex="1">
          <mxGeometry x="480" y="700" width="100" height="40" as="geometry" />
        </mxCell>
        <mxCell id="Cc-G76g3C1j7heIn7z3_-101" value="" style="endArrow=none;html=1;rounded=0;" parent="1" edge="1">
          <mxGeometry relative="1" as="geometry">
            <mxPoint x="660" y="640" as="sourcePoint" />
            <mxPoint x="910" y="640" as="targetPoint" />
            <Array as="points">
              <mxPoint x="660" y="680" />
              <mxPoint x="660" y="640" />
            </Array>
          </mxGeometry>
        </mxCell>
        <mxCell id="Cc-G76g3C1j7heIn7z3_-104" value="" style="endArrow=none;html=1;rounded=0;exitX=0.5;exitY=1;exitDx=0;exitDy=0;entryX=0.5;entryY=0;entryDx=0;entryDy=0;" parent="1" source="RJ1rTUiSph7neFS-0lsj-41" target="RJ1rTUiSph7neFS-0lsj-38" edge="1">
          <mxGeometry relative="1" as="geometry">
            <mxPoint x="400" y="790" as="sourcePoint" />
            <mxPoint x="560" y="790" as="targetPoint" />
          </mxGeometry>
        </mxCell>
        <mxCell id="Cc-G76g3C1j7heIn7z3_-105" value="" style="endArrow=none;html=1;rounded=0;exitX=0.5;exitY=0;exitDx=0;exitDy=0;entryX=0.5;entryY=1;entryDx=0;entryDy=0;" parent="1" target="RJ1rTUiSph7neFS-0lsj-38" edge="1">
          <mxGeometry relative="1" as="geometry">
            <mxPoint x="669.9999999999998" y="840" as="sourcePoint" />
            <mxPoint x="650" y="770" as="targetPoint" />
          </mxGeometry>
        </mxCell>
        <mxCell id="Cc-G76g3C1j7heIn7z3_-108" value="Importe Base" style="ellipse;whiteSpace=wrap;html=1;align=center;" parent="1" vertex="1">
          <mxGeometry x="420" y="240" width="100" height="40" as="geometry" />
        </mxCell>
        <mxCell id="Cc-G76g3C1j7heIn7z3_-109" value="Importe IVA" style="ellipse;whiteSpace=wrap;html=1;align=center;" parent="1" vertex="1">
          <mxGeometry x="420" y="290" width="100" height="40" as="geometry" />
        </mxCell>
        <mxCell id="Cc-G76g3C1j7heIn7z3_-111" value="Numero" style="ellipse;whiteSpace=wrap;html=1;align=center;fontStyle=4;" parent="1" vertex="1">
          <mxGeometry x="190" y="290" width="100" height="40" as="geometry" />
        </mxCell>
        <mxCell id="Cc-G76g3C1j7heIn7z3_-112" value="" style="endArrow=none;html=1;rounded=0;exitX=1;exitY=1;exitDx=0;exitDy=0;entryX=0;entryY=0.75;entryDx=0;entryDy=0;" parent="1" source="Cc-G76g3C1j7heIn7z3_-111" target="Cc-G76g3C1j7heIn7z3_-17" edge="1">
          <mxGeometry relative="1" as="geometry">
            <mxPoint x="580" y="230" as="sourcePoint" />
            <mxPoint x="740" y="230" as="targetPoint" />
          </mxGeometry>
        </mxCell>
        <mxCell id="Cc-G76g3C1j7heIn7z3_-113" value="" style="endArrow=none;html=1;rounded=0;exitX=1;exitY=0.75;exitDx=0;exitDy=0;entryX=0;entryY=1;entryDx=0;entryDy=0;" parent="1" source="Cc-G76g3C1j7heIn7z3_-17" target="Cc-G76g3C1j7heIn7z3_-109" edge="1">
          <mxGeometry relative="1" as="geometry">
            <mxPoint x="640" y="260" as="sourcePoint" />
            <mxPoint x="800" y="260" as="targetPoint" />
          </mxGeometry>
        </mxCell>
        <mxCell id="Cc-G76g3C1j7heIn7z3_-114" value="" style="endArrow=none;html=1;rounded=0;exitX=0.75;exitY=0;exitDx=0;exitDy=0;entryX=0;entryY=1;entryDx=0;entryDy=0;" parent="1" source="Cc-G76g3C1j7heIn7z3_-17" target="Cc-G76g3C1j7heIn7z3_-108" edge="1">
          <mxGeometry relative="1" as="geometry">
            <mxPoint x="580" y="240" as="sourcePoint" />
            <mxPoint x="740" y="240" as="targetPoint" />
          </mxGeometry>
        </mxCell>
        <mxCell id="Cc-G76g3C1j7heIn7z3_-115" value="Fecha" style="ellipse;whiteSpace=wrap;html=1;align=center;" parent="1" vertex="1">
          <mxGeometry x="190" y="240" width="100" height="40" as="geometry" />
        </mxCell>
        <mxCell id="Cc-G76g3C1j7heIn7z3_-116" value="" style="endArrow=none;html=1;rounded=0;exitX=1;exitY=1;exitDx=0;exitDy=0;entryX=0.25;entryY=0;entryDx=0;entryDy=0;" parent="1" source="Cc-G76g3C1j7heIn7z3_-115" target="Cc-G76g3C1j7heIn7z3_-17" edge="1">
          <mxGeometry relative="1" as="geometry">
            <mxPoint x="540" y="220" as="sourcePoint" />
            <mxPoint x="700" y="220" as="targetPoint" />
          </mxGeometry>
        </mxCell>
        <mxCell id="Cc-G76g3C1j7heIn7z3_-117" value="Identificador" style="ellipse;whiteSpace=wrap;html=1;align=center;fontStyle=4;" parent="1" vertex="1">
          <mxGeometry x="190" y="140" width="100" height="40" as="geometry" />
        </mxCell>
        <mxCell id="Cc-G76g3C1j7heIn7z3_-118" value="" style="endArrow=none;html=1;rounded=0;exitX=1;exitY=0.5;exitDx=0;exitDy=0;entryX=0;entryY=0.5;entryDx=0;entryDy=0;" parent="1" source="Cc-G76g3C1j7heIn7z3_-117" target="Cc-G76g3C1j7heIn7z3_-15" edge="1">
          <mxGeometry relative="1" as="geometry">
            <mxPoint x="260" y="200" as="sourcePoint" />
            <mxPoint x="420" y="200" as="targetPoint" />
          </mxGeometry>
        </mxCell>
        <mxCell id="Cc-G76g3C1j7heIn7z3_-119" value="Puntuacion Media" style="ellipse;whiteSpace=wrap;html=1;align=center;" parent="1" vertex="1">
          <mxGeometry x="680" y="280" width="100" height="40" as="geometry" />
        </mxCell>
        <mxCell id="Cc-G76g3C1j7heIn7z3_-120" value="" style="endArrow=none;html=1;rounded=0;exitX=0.5;exitY=1;exitDx=0;exitDy=0;entryX=0.25;entryY=0;entryDx=0;entryDy=0;" parent="1" source="Cc-G76g3C1j7heIn7z3_-119" target="RJ1rTUiSph7neFS-0lsj-22" edge="1">
          <mxGeometry relative="1" as="geometry">
            <mxPoint x="870" y="280" as="sourcePoint" />
            <mxPoint x="1030" y="280" as="targetPoint" />
          </mxGeometry>
        </mxCell>
        <mxCell id="Cc-G76g3C1j7heIn7z3_-124" value="1" style="text;html=1;align=center;verticalAlign=middle;whiteSpace=wrap;rounded=0;" parent="1" vertex="1">
          <mxGeometry x="350" y="480" width="60" height="30" as="geometry" />
        </mxCell>
        <mxCell id="Cc-G76g3C1j7heIn7z3_-125" value="N" style="text;html=1;align=center;verticalAlign=middle;whiteSpace=wrap;rounded=0;" parent="1" vertex="1">
          <mxGeometry x="360" y="340" width="60" height="30" as="geometry" />
        </mxCell>
        <mxCell id="Cc-G76g3C1j7heIn7z3_-126" value="N" style="text;html=1;align=center;verticalAlign=middle;whiteSpace=wrap;rounded=0;" parent="1" vertex="1">
          <mxGeometry x="360" y="180" width="60" height="30" as="geometry" />
        </mxCell>
        <mxCell id="Cc-G76g3C1j7heIn7z3_-127" value="1" style="text;html=1;align=center;verticalAlign=middle;whiteSpace=wrap;rounded=0;" parent="1" vertex="1">
          <mxGeometry x="340" y="275" width="60" height="30" as="geometry" />
        </mxCell>
        <mxCell id="Cc-G76g3C1j7heIn7z3_-128" value="1" style="text;html=1;align=center;verticalAlign=middle;whiteSpace=wrap;rounded=0;" parent="1" vertex="1">
          <mxGeometry x="280" y="475" width="60" height="30" as="geometry" />
        </mxCell>
        <mxCell id="Cc-G76g3C1j7heIn7z3_-129" value="1" style="text;html=1;align=center;verticalAlign=middle;whiteSpace=wrap;rounded=0;" parent="1" vertex="1">
          <mxGeometry x="80" y="120" width="60" height="30" as="geometry" />
        </mxCell>
        <mxCell id="Cc-G76g3C1j7heIn7z3_-130" value="N" style="text;html=1;align=center;verticalAlign=middle;whiteSpace=wrap;rounded=0;" parent="1" vertex="1">
          <mxGeometry x="390" y="140" width="60" height="30" as="geometry" />
        </mxCell>
        <mxCell id="Cc-G76g3C1j7heIn7z3_-131" value="N" style="text;html=1;align=center;verticalAlign=middle;whiteSpace=wrap;rounded=0;" parent="1" vertex="1">
          <mxGeometry x="770" y="445" width="60" height="30" as="geometry" />
        </mxCell>
        <mxCell id="Cc-G76g3C1j7heIn7z3_-132" value="N" style="text;html=1;align=center;verticalAlign=middle;whiteSpace=wrap;rounded=0;" parent="1" vertex="1">
          <mxGeometry x="830" y="505" width="60" height="30" as="geometry" />
        </mxCell>
        <mxCell id="Cc-G76g3C1j7heIn7z3_-133" value="1" style="text;html=1;align=center;verticalAlign=middle;whiteSpace=wrap;rounded=0;" parent="1" vertex="1">
          <mxGeometry x="1010" y="470" width="60" height="30" as="geometry" />
        </mxCell>
        <mxCell id="Cc-G76g3C1j7heIn7z3_-134" value="N" style="text;html=1;align=center;verticalAlign=middle;whiteSpace=wrap;rounded=0;" parent="1" vertex="1">
          <mxGeometry x="800" y="535" width="60" height="30" as="geometry" />
        </mxCell>
        <mxCell id="Cc-G76g3C1j7heIn7z3_-135" value="1" style="text;html=1;align=center;verticalAlign=middle;whiteSpace=wrap;rounded=0;" parent="1" vertex="1">
          <mxGeometry x="970" y="565" width="60" height="30" as="geometry" />
        </mxCell>
        <mxCell id="Cc-G76g3C1j7heIn7z3_-136" value="N" style="text;html=1;align=center;verticalAlign=middle;whiteSpace=wrap;rounded=0;" parent="1" vertex="1">
          <mxGeometry x="610" y="720" width="60" height="30" as="geometry" />
        </mxCell>
        <mxCell id="Cc-G76g3C1j7heIn7z3_-139" value="1" style="text;html=1;align=center;verticalAlign=middle;whiteSpace=wrap;rounded=0;" parent="1" vertex="1">
          <mxGeometry x="600" y="810" width="60" height="30" as="geometry" />
        </mxCell>
        <mxCell id="rlC2OBjnES7nVHWVjSGr-1" value="Descripcion" style="ellipse;whiteSpace=wrap;html=1;" vertex="1" parent="1">
          <mxGeometry x="520" y="835" width="80" height="50" as="geometry" />
        </mxCell>
        <mxCell id="rlC2OBjnES7nVHWVjSGr-2" value="" style="endArrow=none;html=1;rounded=0;entryX=1;entryY=0;entryDx=0;entryDy=0;exitX=0;exitY=0.75;exitDx=0;exitDy=0;" edge="1" parent="1" source="RJ1rTUiSph7neFS-0lsj-41" target="Cc-G76g3C1j7heIn7z3_-97">
          <mxGeometry width="50" height="50" relative="1" as="geometry">
            <mxPoint x="510" y="840" as="sourcePoint" />
            <mxPoint x="560" y="790" as="targetPoint" />
          </mxGeometry>
        </mxCell>
        <mxCell id="rlC2OBjnES7nVHWVjSGr-3" value="Identificador" style="ellipse;whiteSpace=wrap;html=1;align=center;fontStyle=4;" vertex="1" parent="1">
          <mxGeometry x="740" y="840" width="100" height="40" as="geometry" />
        </mxCell>
        <mxCell id="rlC2OBjnES7nVHWVjSGr-4" value="" style="endArrow=none;html=1;rounded=0;exitX=0.5;exitY=0;exitDx=0;exitDy=0;entryX=0.5;entryY=1;entryDx=0;entryDy=0;" edge="1" parent="1" source="Cc-G76g3C1j7heIn7z3_-82" target="RJ1rTUiSph7neFS-0lsj-35">
          <mxGeometry relative="1" as="geometry">
            <mxPoint x="580" y="960" as="sourcePoint" />
            <mxPoint x="740" y="960" as="targetPoint" />
          </mxGeometry>
        </mxCell>
        <mxCell id="rlC2OBjnES7nVHWVjSGr-5" value="" style="endArrow=none;html=1;rounded=0;exitX=1;exitY=0.5;exitDx=0;exitDy=0;entryX=0;entryY=0.5;entryDx=0;entryDy=0;" edge="1" parent="1" source="rlC2OBjnES7nVHWVjSGr-1" target="RJ1rTUiSph7neFS-0lsj-35">
          <mxGeometry relative="1" as="geometry">
            <mxPoint x="470" y="940" as="sourcePoint" />
            <mxPoint x="630" y="940" as="targetPoint" />
          </mxGeometry>
        </mxCell>
        <mxCell id="rlC2OBjnES7nVHWVjSGr-6" value="" style="endArrow=none;html=1;rounded=0;exitX=1;exitY=0.5;exitDx=0;exitDy=0;entryX=0;entryY=0.5;entryDx=0;entryDy=0;" edge="1" parent="1" source="RJ1rTUiSph7neFS-0lsj-35" target="rlC2OBjnES7nVHWVjSGr-3">
          <mxGeometry relative="1" as="geometry">
            <mxPoint x="780" y="950" as="sourcePoint" />
            <mxPoint x="940" y="950" as="targetPoint" />
          </mxGeometry>
        </mxCell>
        <mxCell id="rlC2OBjnES7nVHWVjSGr-7" value="N" style="text;html=1;align=center;verticalAlign=middle;whiteSpace=wrap;rounded=0;" vertex="1" parent="1">
          <mxGeometry x="280" y="120" width="60" height="30" as="geometry" />
        </mxCell>
        <mxCell id="rlC2OBjnES7nVHWVjSGr-9" value="1" style="text;html=1;align=center;verticalAlign=middle;whiteSpace=wrap;rounded=0;" vertex="1" parent="1">
          <mxGeometry x="170" y="80" width="60" height="30" as="geometry" />
        </mxCell>
        <mxCell id="rlC2OBjnES7nVHWVjSGr-10" value="changedTs" style="ellipse;whiteSpace=wrap;html=1;align=center;" vertex="1" parent="1">
          <mxGeometry x="320" y="670" width="100" height="40" as="geometry" />
        </mxCell>
        <mxCell id="rlC2OBjnES7nVHWVjSGr-11" value="changedTs" style="ellipse;whiteSpace=wrap;html=1;align=center;" vertex="1" parent="1">
          <mxGeometry x="390" y="360" width="100" height="40" as="geometry" />
        </mxCell>
        <mxCell id="rlC2OBjnES7nVHWVjSGr-12" value="changedTs" style="ellipse;whiteSpace=wrap;html=1;align=center;" vertex="1" parent="1">
          <mxGeometry x="30" y="20" width="100" height="40" as="geometry" />
        </mxCell>
        <mxCell id="rlC2OBjnES7nVHWVjSGr-13" value="changedTs" style="ellipse;whiteSpace=wrap;html=1;align=center;" vertex="1" parent="1">
          <mxGeometry x="910" y="340" width="100" height="40" as="geometry" />
        </mxCell>
        <mxCell id="rlC2OBjnES7nVHWVjSGr-14" value="changedTs" style="ellipse;whiteSpace=wrap;html=1;align=center;" vertex="1" parent="1">
          <mxGeometry x="1050" y="500" width="100" height="40" as="geometry" />
        </mxCell>
        <mxCell id="rlC2OBjnES7nVHWVjSGr-15" value="changedTs" style="ellipse;whiteSpace=wrap;html=1;align=center;" vertex="1" parent="1">
          <mxGeometry x="1020" y="670" width="100" height="40" as="geometry" />
        </mxCell>
        <mxCell id="rlC2OBjnES7nVHWVjSGr-17" value="changedTs" style="ellipse;whiteSpace=wrap;html=1;align=center;" vertex="1" parent="1">
          <mxGeometry x="740" y="790" width="100" height="40" as="geometry" />
        </mxCell>
        <mxCell id="rlC2OBjnES7nVHWVjSGr-18" value="changedTs" style="ellipse;whiteSpace=wrap;html=1;align=center;" vertex="1" parent="1">
          <mxGeometry x="400" y="180" width="100" height="40" as="geometry" />
        </mxCell>
        <mxCell id="rlC2OBjnES7nVHWVjSGr-19" value="" style="endArrow=none;html=1;rounded=0;entryX=0;entryY=0;entryDx=0;entryDy=0;exitX=0.5;exitY=0;exitDx=0;exitDy=0;" edge="1" parent="1" source="Cc-G76g3C1j7heIn7z3_-126" target="rlC2OBjnES7nVHWVjSGr-18">
          <mxGeometry relative="1" as="geometry">
            <mxPoint x="440" y="350" as="sourcePoint" />
            <mxPoint x="600" y="350" as="targetPoint" />
          </mxGeometry>
        </mxCell>
        <mxCell id="rlC2OBjnES7nVHWVjSGr-20" value="" style="endArrow=none;html=1;rounded=0;exitX=0.5;exitY=1;exitDx=0;exitDy=0;entryX=0.25;entryY=0;entryDx=0;entryDy=0;" edge="1" parent="1" source="rlC2OBjnES7nVHWVjSGr-12" target="RJ1rTUiSph7neFS-0lsj-78">
          <mxGeometry relative="1" as="geometry">
            <mxPoint x="460" y="60" as="sourcePoint" />
            <mxPoint x="620" y="60" as="targetPoint" />
          </mxGeometry>
        </mxCell>
        <mxCell id="rlC2OBjnES7nVHWVjSGr-34" value="" style="endArrow=none;html=1;rounded=0;exitX=0.5;exitY=0;exitDx=0;exitDy=0;entryX=0.25;entryY=1;entryDx=0;entryDy=0;" edge="1" parent="1" source="rlC2OBjnES7nVHWVjSGr-10" target="RJ1rTUiSph7neFS-0lsj-8">
          <mxGeometry relative="1" as="geometry">
            <mxPoint x="360" y="780" as="sourcePoint" />
            <mxPoint x="520" y="780" as="targetPoint" />
          </mxGeometry>
        </mxCell>
        <mxCell id="rlC2OBjnES7nVHWVjSGr-36" value="" style="endArrow=none;html=1;rounded=0;exitX=0.75;exitY=0;exitDx=0;exitDy=0;entryX=0;entryY=0.5;entryDx=0;entryDy=0;" edge="1" parent="1" source="RJ1rTUiSph7neFS-0lsj-35" target="rlC2OBjnES7nVHWVjSGr-17">
          <mxGeometry relative="1" as="geometry">
            <mxPoint x="850" y="930" as="sourcePoint" />
            <mxPoint x="1010" y="930" as="targetPoint" />
          </mxGeometry>
        </mxCell>
        <mxCell id="rlC2OBjnES7nVHWVjSGr-37" value="" style="endArrow=none;html=1;rounded=0;exitX=0.5;exitY=0;exitDx=0;exitDy=0;entryX=0.5;entryY=1;entryDx=0;entryDy=0;" edge="1" parent="1" source="rlC2OBjnES7nVHWVjSGr-15" target="RJ1rTUiSph7neFS-0lsj-69">
          <mxGeometry relative="1" as="geometry">
            <mxPoint x="1040" y="740" as="sourcePoint" />
            <mxPoint x="1200" y="740" as="targetPoint" />
          </mxGeometry>
        </mxCell>
        <mxCell id="rlC2OBjnES7nVHWVjSGr-51" value="" style="endArrow=none;html=1;rounded=0;exitX=0.5;exitY=0;exitDx=0;exitDy=0;entryX=0.5;entryY=1;entryDx=0;entryDy=0;" edge="1" parent="1" source="rlC2OBjnES7nVHWVjSGr-14" target="RJ1rTUiSph7neFS-0lsj-68">
          <mxGeometry relative="1" as="geometry">
            <mxPoint x="900" y="260" as="sourcePoint" />
            <mxPoint x="1060" y="260" as="targetPoint" />
          </mxGeometry>
        </mxCell>
        <mxCell id="rlC2OBjnES7nVHWVjSGr-52" value="" style="endArrow=none;html=1;rounded=0;exitX=0;exitY=0.5;exitDx=0;exitDy=0;entryX=0.75;entryY=0;entryDx=0;entryDy=0;" edge="1" parent="1" source="rlC2OBjnES7nVHWVjSGr-13" target="RJ1rTUiSph7neFS-0lsj-22">
          <mxGeometry relative="1" as="geometry">
            <mxPoint x="970" y="290" as="sourcePoint" />
            <mxPoint x="1130" y="290" as="targetPoint" />
          </mxGeometry>
        </mxCell>
        <mxCell id="rlC2OBjnES7nVHWVjSGr-53" value="" style="endArrow=none;html=1;rounded=0;exitX=0;exitY=0;exitDx=0;exitDy=0;entryX=0;entryY=0;entryDx=0;entryDy=0;" edge="1" parent="1" source="rlC2OBjnES7nVHWVjSGr-11" target="Cc-G76g3C1j7heIn7z3_-125">
          <mxGeometry relative="1" as="geometry">
            <mxPoint x="540" y="290" as="sourcePoint" />
            <mxPoint x="700" y="290" as="targetPoint" />
          </mxGeometry>
        </mxCell>
        <mxCell id="rlC2OBjnES7nVHWVjSGr-67" value="N" style="text;html=1;align=center;verticalAlign=middle;whiteSpace=wrap;rounded=0;" vertex="1" parent="1">
          <mxGeometry x="380" y="505" width="60" height="30" as="geometry" />
        </mxCell>
        <mxCell id="rlC2OBjnES7nVHWVjSGr-70" value="N" style="text;html=1;align=center;verticalAlign=middle;whiteSpace=wrap;rounded=0;" vertex="1" parent="1">
          <mxGeometry x="700" y="505" width="60" height="30" as="geometry" />
        </mxCell>
        <mxCell id="rlC2OBjnES7nVHWVjSGr-73" value="ID" style="ellipse;whiteSpace=wrap;html=1;align=center;fontStyle=4;" vertex="1" parent="1">
          <mxGeometry x="150" y="20" width="100" height="40" as="geometry" />
        </mxCell>
        <mxCell id="rlC2OBjnES7nVHWVjSGr-74" value="" style="endArrow=none;html=1;rounded=0;exitX=0.75;exitY=0;exitDx=0;exitDy=0;entryX=0.5;entryY=1;entryDx=0;entryDy=0;" edge="1" parent="1" source="RJ1rTUiSph7neFS-0lsj-78" target="rlC2OBjnES7nVHWVjSGr-73">
          <mxGeometry relative="1" as="geometry">
            <mxPoint x="280" y="40" as="sourcePoint" />
            <mxPoint x="440" y="40" as="targetPoint" />
          </mxGeometry>
        </mxCell>
      </root>
    </mxGraphModel>
  </diagram>
</mxfile>
